<svg width="318" height="199" viewBox="0 0 318 199" fill="none" xmlns="http://www.w3.org/2000/svg">
<g filter="url(#filter0_ddd_280_53)">
<path d="M121.472 118.562C121.419 118.066 121.195 117.68 120.801 117.403C120.411 117.127 119.903 116.989 119.278 116.989C118.839 116.989 118.462 117.055 118.148 117.188C117.833 117.32 117.593 117.5 117.426 117.727C117.259 117.955 117.174 118.214 117.17 118.506C117.17 118.748 117.225 118.958 117.335 119.136C117.449 119.314 117.602 119.466 117.795 119.591C117.989 119.712 118.203 119.814 118.438 119.898C118.672 119.981 118.909 120.051 119.148 120.108L120.239 120.381C120.678 120.483 121.1 120.621 121.506 120.795C121.915 120.97 122.28 121.189 122.602 121.455C122.928 121.72 123.186 122.04 123.375 122.415C123.564 122.79 123.659 123.229 123.659 123.733C123.659 124.415 123.485 125.015 123.136 125.534C122.788 126.049 122.284 126.453 121.625 126.744C120.97 127.032 120.176 127.176 119.244 127.176C118.339 127.176 117.553 127.036 116.886 126.756C116.223 126.475 115.705 126.066 115.33 125.528C114.958 124.991 114.758 124.335 114.727 123.562H116.801C116.831 123.968 116.956 124.305 117.176 124.574C117.396 124.843 117.682 125.044 118.034 125.176C118.39 125.309 118.788 125.375 119.227 125.375C119.686 125.375 120.087 125.307 120.432 125.17C120.78 125.03 121.053 124.837 121.25 124.591C121.447 124.341 121.547 124.049 121.551 123.716C121.547 123.413 121.458 123.163 121.284 122.966C121.11 122.765 120.866 122.598 120.551 122.466C120.241 122.33 119.877 122.208 119.46 122.102L118.136 121.761C117.178 121.515 116.42 121.142 115.864 120.642C115.311 120.138 115.034 119.47 115.034 118.636C115.034 117.951 115.22 117.35 115.591 116.835C115.966 116.32 116.475 115.92 117.119 115.636C117.763 115.348 118.492 115.205 119.307 115.205C120.133 115.205 120.856 115.348 121.477 115.636C122.102 115.92 122.593 116.316 122.949 116.824C123.305 117.328 123.489 117.907 123.5 118.562H121.472ZM129.254 127.17C128.383 127.17 127.635 126.979 127.01 126.597C126.389 126.214 125.91 125.686 125.572 125.011C125.239 124.333 125.072 123.553 125.072 122.67C125.072 121.784 125.243 121.002 125.584 120.324C125.925 119.642 126.406 119.112 127.027 118.733C127.652 118.35 128.391 118.159 129.243 118.159C129.951 118.159 130.578 118.29 131.124 118.551C131.673 118.809 132.11 119.174 132.436 119.648C132.762 120.117 132.947 120.667 132.993 121.295H131.027C130.947 120.875 130.758 120.525 130.459 120.244C130.163 119.96 129.768 119.818 129.271 119.818C128.851 119.818 128.482 119.932 128.163 120.159C127.845 120.383 127.597 120.705 127.419 121.125C127.245 121.545 127.158 122.049 127.158 122.636C127.158 123.231 127.245 123.742 127.419 124.17C127.593 124.595 127.838 124.922 128.152 125.153C128.47 125.381 128.843 125.494 129.271 125.494C129.574 125.494 129.845 125.437 130.084 125.324C130.326 125.206 130.529 125.038 130.692 124.818C130.855 124.598 130.966 124.331 131.027 124.017H132.993C132.944 124.634 132.762 125.182 132.447 125.659C132.133 126.133 131.705 126.504 131.163 126.773C130.622 127.038 129.985 127.17 129.254 127.17ZM134.682 127V118.273H136.676V119.727H136.767C136.926 119.223 137.199 118.835 137.585 118.562C137.975 118.286 138.42 118.148 138.92 118.148C139.034 118.148 139.161 118.153 139.301 118.165C139.445 118.172 139.564 118.186 139.659 118.205V120.097C139.572 120.066 139.434 120.04 139.244 120.017C139.059 119.991 138.879 119.977 138.705 119.977C138.33 119.977 137.992 120.059 137.693 120.222C137.398 120.381 137.165 120.602 136.994 120.886C136.824 121.17 136.739 121.498 136.739 121.869V127H134.682ZM144.473 127.17C143.621 127.17 142.882 126.983 142.257 126.608C141.632 126.233 141.147 125.708 140.803 125.034C140.462 124.36 140.291 123.572 140.291 122.67C140.291 121.769 140.462 120.979 140.803 120.301C141.147 119.623 141.632 119.097 142.257 118.722C142.882 118.347 143.621 118.159 144.473 118.159C145.325 118.159 146.064 118.347 146.689 118.722C147.314 119.097 147.797 119.623 148.138 120.301C148.482 120.979 148.655 121.769 148.655 122.67C148.655 123.572 148.482 124.36 148.138 125.034C147.797 125.708 147.314 126.233 146.689 126.608C146.064 126.983 145.325 127.17 144.473 127.17ZM144.484 125.523C144.946 125.523 145.333 125.396 145.643 125.142C145.954 124.884 146.185 124.54 146.337 124.108C146.492 123.676 146.57 123.195 146.57 122.665C146.57 122.131 146.492 121.648 146.337 121.216C146.185 120.78 145.954 120.434 145.643 120.176C145.333 119.919 144.946 119.79 144.484 119.79C144.011 119.79 143.617 119.919 143.303 120.176C142.992 120.434 142.759 120.78 142.604 121.216C142.452 121.648 142.376 122.131 142.376 122.665C142.376 123.195 142.452 123.676 142.604 124.108C142.759 124.54 142.992 124.884 143.303 125.142C143.617 125.396 144.011 125.523 144.484 125.523ZM152.457 115.364V127H150.401V115.364H152.457ZM156.629 115.364V127H154.572V115.364H156.629ZM165.952 127.153C165.266 127.153 164.652 126.977 164.111 126.625C163.569 126.273 163.141 125.761 162.827 125.091C162.512 124.42 162.355 123.606 162.355 122.648C162.355 121.678 162.514 120.86 162.832 120.193C163.154 119.523 163.588 119.017 164.134 118.676C164.679 118.331 165.287 118.159 165.957 118.159C166.469 118.159 166.889 118.246 167.219 118.42C167.548 118.591 167.81 118.797 168.003 119.04C168.196 119.278 168.346 119.504 168.452 119.716H168.537V115.364H170.599V127H168.577V125.625H168.452C168.346 125.837 168.192 126.062 167.991 126.301C167.791 126.536 167.526 126.737 167.196 126.903C166.866 127.07 166.452 127.153 165.952 127.153ZM166.526 125.466C166.961 125.466 167.332 125.348 167.639 125.114C167.946 124.875 168.179 124.544 168.338 124.119C168.497 123.695 168.577 123.201 168.577 122.636C168.577 122.072 168.497 121.581 168.338 121.165C168.183 120.748 167.952 120.424 167.645 120.193C167.342 119.962 166.969 119.847 166.526 119.847C166.067 119.847 165.685 119.966 165.378 120.205C165.071 120.443 164.84 120.773 164.685 121.193C164.529 121.614 164.452 122.095 164.452 122.636C164.452 123.182 164.529 123.669 164.685 124.097C164.844 124.521 165.077 124.856 165.384 125.102C165.694 125.345 166.075 125.466 166.526 125.466ZM176.598 127.17C175.746 127.17 175.007 126.983 174.382 126.608C173.757 126.233 173.272 125.708 172.928 125.034C172.587 124.36 172.416 123.572 172.416 122.67C172.416 121.769 172.587 120.979 172.928 120.301C173.272 119.623 173.757 119.097 174.382 118.722C175.007 118.347 175.746 118.159 176.598 118.159C177.45 118.159 178.189 118.347 178.814 118.722C179.439 119.097 179.922 119.623 180.263 120.301C180.607 120.979 180.78 121.769 180.78 122.67C180.78 123.572 180.607 124.36 180.263 125.034C179.922 125.708 179.439 126.233 178.814 126.608C178.189 126.983 177.45 127.17 176.598 127.17ZM176.609 125.523C177.071 125.523 177.458 125.396 177.768 125.142C178.079 124.884 178.31 124.54 178.462 124.108C178.617 123.676 178.695 123.195 178.695 122.665C178.695 122.131 178.617 121.648 178.462 121.216C178.31 120.78 178.079 120.434 177.768 120.176C177.458 119.919 177.071 119.79 176.609 119.79C176.136 119.79 175.742 119.919 175.428 120.176C175.117 120.434 174.884 120.78 174.729 121.216C174.577 121.648 174.501 122.131 174.501 122.665C174.501 123.195 174.577 123.676 174.729 124.108C174.884 124.54 175.117 124.884 175.428 125.142C175.742 125.396 176.136 125.523 176.609 125.523ZM184.077 127L181.611 118.273H183.707L185.241 124.409H185.321L186.889 118.273H188.963L190.531 124.375H190.616L192.128 118.273H194.23L191.759 127H189.616L187.98 121.102H187.861L186.224 127H184.077ZM197.723 121.886V127H195.666V118.273H197.632V119.756H197.734C197.935 119.267 198.255 118.879 198.695 118.591C199.138 118.303 199.685 118.159 200.337 118.159C200.939 118.159 201.464 118.288 201.911 118.545C202.361 118.803 202.71 119.176 202.956 119.665C203.206 120.153 203.329 120.746 203.325 121.443V127H201.268V121.761C201.268 121.178 201.117 120.722 200.814 120.392C200.515 120.062 200.1 119.898 199.57 119.898C199.21 119.898 198.89 119.977 198.609 120.136C198.333 120.292 198.115 120.517 197.956 120.812C197.801 121.108 197.723 121.466 197.723 121.886Z" fill="white"/>
<path d="M147.5 141L159.5 149L171.5 141" stroke="white" stroke-width="3"/>
<path opacity="0.5" d="M147.5 151L159.5 159L171.5 151" stroke="white" stroke-width="3"/>
</g>
<defs>
<filter id="filter0_ddd_280_53" x="-0.660004" y="-2.66" width="320.32" height="278.123" filterUnits="userSpaceOnUse" color-interpolation-filters="sRGB">
<feFlood flood-opacity="0" result="BackgroundImageFix"/>
<feColorMatrix in="SourceAlpha" type="matrix" values="0 0 0 0 0 0 0 0 0 0 0 0 0 0 0 0 0 0 127 0" result="hardAlpha"/>
<feOffset/>
<feGaussianBlur stdDeviation="8.19"/>
<feColorMatrix type="matrix" values="0 0 0 0 1 0 0 0 0 1 0 0 0 0 1 0 0 0 1 0"/>
<feBlend mode="normal" in2="BackgroundImageFix" result="effect1_dropShadow_280_53"/>
<feColorMatrix in="SourceAlpha" type="matrix" values="0 0 0 0 0 0 0 0 0 0 0 0 0 0 0 0 0 0 127 0" result="hardAlpha"/>
<feOffset/>
<feGaussianBlur stdDeviation="28.665"/>
<feColorMatrix type="matrix" values="0 0 0 0 1 0 0 0 0 1 0 0 0 0 1 0 0 0 1 0"/>
<feBlend mode="normal" in2="effect1_dropShadow_280_53" result="effect2_dropShadow_280_53"/>
<feColorMatrix in="SourceAlpha" type="matrix" values="0 0 0 0 0 0 0 0 0 0 0 0 0 0 0 0 0 0 127 0" result="hardAlpha"/>
<feOffset/>
<feGaussianBlur stdDeviation="57.33"/>
<feColorMatrix type="matrix" values="0 0 0 0 1 0 0 0 0 1 0 0 0 0 1 0 0 0 1 0"/>
<feBlend mode="normal" in2="effect2_dropShadow_280_53" result="effect3_dropShadow_280_53"/>
<feBlend mode="normal" in="SourceGraphic" in2="effect3_dropShadow_280_53" result="shape"/>
</filter>
</defs>
</svg>
